<?xml version="1.0" encoding="utf-8"?><!-- Uploaded to: SVG Repo, www.svgrepo.com, Generator: SVG Repo Mixer Tools -->
<svg width="800px" height="800px" viewBox="0 0 24 24" fill="none" xmlns="http://www.w3.org/2000/svg">
<path fill-rule="evenodd" clip-rule="evenodd" d="M9.75 12C9.7498 11.0459 10.4068 10.2244 11.3192 10.0381C12.2316 9.85176 13.1453 10.3524 13.5014 11.2339C13.8576 12.1153 13.5571 13.1321 12.7836 13.6623C12.0102 14.1926 10.9793 14.0886 10.3214 13.414C9.95563 13.039 9.75011 12.5304 9.75 12Z" stroke="#000000" stroke-width="1.5" stroke-linecap="round" stroke-linejoin="round"/>
<path d="M4.875 11.25C4.46079 11.25 4.125 11.5858 4.125 12C4.125 12.4142 4.46079 12.75 4.875 12.75V11.25ZM6.3921 12.75C6.80631 12.75 7.1421 12.4142 7.1421 12C7.1421 11.5858 6.80631 11.25 6.3921 11.25V12.75ZM5.6421 12C5.6421 12.4142 5.97789 12.75 6.3921 12.75C6.80631 12.75 7.1421 12.4142 7.1421 12H5.6421ZM11.7 7.306C12.1142 7.306 12.45 6.97021 12.45 6.556C12.45 6.14179 12.1142 5.806 11.7 5.806V7.306ZM7.1421 12C7.1421 11.5858 6.80631 11.25 6.3921 11.25C5.97789 11.25 5.6421 11.5858 5.6421 12H7.1421ZM11.7 18.194C12.1142 18.194 12.45 17.8582 12.45 17.444C12.45 17.0298 12.1142 16.694 11.7 16.694V18.194ZM6.3921 11.25C5.97789 11.25 5.6421 11.5858 5.6421 12C5.6421 12.4142 5.97789 12.75 6.3921 12.75V11.25ZM7.90822 12.75C8.32244 12.75 8.65822 12.4142 8.65822 12C8.65822 11.5858 8.32244 11.25 7.90822 11.25V12.75ZM10.95 6.556C10.95 6.97021 11.2858 7.306 11.7 7.306C12.1142 7.306 12.45 6.97021 12.45 6.556H10.95ZM12.45 5C12.45 4.58579 12.1142 4.25 11.7 4.25C11.2858 4.25 10.95 4.58579 10.95 5H12.45ZM12.45 6.556C12.45 6.14179 12.1142 5.806 11.7 5.806C11.2858 5.806 10.95 6.14179 10.95 6.556H12.45ZM10.95 8.111C10.95 8.52521 11.2858 8.861 11.7 8.861C12.1142 8.861 12.45 8.52521 12.45 8.111H10.95ZM11.7 5.806C11.2858 5.806 10.95 6.14179 10.95 6.556C10.95 6.97021 11.2858 7.306 11.7 7.306V5.806ZM15.4533 8.15051L14.9163 8.67409L14.9163 8.67409L15.4533 8.15051ZM16.2579 12C16.2579 12.4142 16.5937 12.75 17.0079 12.75C17.4221 12.75 17.7579 12.4142 17.7579 12H16.2579ZM10.95 19C10.95 19.4142 11.2858 19.75 11.7 19.75C12.1142 19.75 12.45 19.4142 12.45 19H10.95ZM12.45 17.444C12.45 17.0298 12.1142 16.694 11.7 16.694C11.2858 16.694 10.95 17.0298 10.95 17.444H12.45ZM10.95 17.444C10.95 17.8582 11.2858 18.194 11.7 18.194C12.1142 18.194 12.45 17.8582 12.45 17.444H10.95ZM12.45 15.889C12.45 15.4748 12.1142 15.139 11.7 15.139C11.2858 15.139 10.95 15.4748 10.95 15.889H12.45ZM11.7 16.695C11.2858 16.695 10.95 17.0308 10.95 17.445C10.95 17.8592 11.2858 18.195 11.7 18.195V16.695ZM15.4536 15.8501L14.9165 15.3266L14.9165 15.3266L15.4536 15.8501ZM17.7579 11.9999C17.7578 11.5857 17.422 11.2499 17.0078 11.25C16.5936 11.2501 16.2578 11.5859 16.2579 12.0001L17.7579 11.9999ZM18.525 12.75C18.9392 12.75 19.275 12.4142 19.275 12C19.275 11.5858 18.9392 11.25 18.525 11.25V12.75ZM17.0079 11.25C16.5937 11.25 16.2579 11.5858 16.2579 12C16.2579 12.4142 16.5937 12.75 17.0079 12.75V11.25ZM17.0079 12.75C17.4221 12.75 17.7579 12.4142 17.7579 12C17.7579 11.5858 17.4221 11.25 17.0079 11.25V12.75ZM15.4918 11.25C15.0776 11.25 14.7418 11.5858 14.7418 12C14.7418 12.4142 15.0776 12.75 15.4918 12.75V11.25ZM4.875 12.75H6.3921V11.25H4.875V12.75ZM7.1421 12C7.1421 9.38956 9.20053 7.306 11.7 7.306V5.806C8.33653 5.806 5.6421 8.59716 5.6421 12H7.1421ZM5.6421 12C5.6421 15.4028 8.33653 18.194 11.7 18.194V16.694C9.20053 16.694 7.1421 14.6104 7.1421 12H5.6421ZM6.3921 12.75H7.90822V11.25H6.3921V12.75ZM12.45 6.556V5H10.95V6.556H12.45ZM10.95 6.556V8.111H12.45V6.556H10.95ZM11.7 7.306C12.9026 7.306 14.0599 7.79581 14.9163 8.67409L15.9903 7.62694C14.8557 6.46332 13.3129 5.806 11.7 5.806V7.306ZM14.9163 8.67409C15.7732 9.55301 16.2579 10.749 16.2579 12H17.7579C17.7579 10.3633 17.1242 8.78991 15.9903 7.62694L14.9163 8.67409ZM12.45 19V17.444H10.95V19H12.45ZM12.45 17.444V15.889H10.95V17.444H12.45ZM11.7 18.195C13.3131 18.195 14.8561 17.5375 15.9906 16.3737L14.9165 15.3266C14.0602 16.2051 12.9028 16.695 11.7 16.695V18.195ZM15.9906 16.3737C17.1246 15.2104 17.7582 13.6368 17.7579 11.9999L16.2579 12.0001C16.2581 13.2513 15.7735 14.4475 14.9165 15.3266L15.9906 16.3737ZM18.525 11.25H17.0079V12.75H18.525V11.25ZM17.0079 11.25H15.4918V12.75H17.0079V11.25Z" fill="#000000"/>
</svg>